HIERARCHY
ROOT Hips
{
	OFFSET 0.000000 0.000000 0.000000
	CHANNELS 6 Xposition Yposition Zposition Zrotation Xrotation Yrotation
	JOINT Spine1
	{
		OFFSET 0.000000 0.000002 -3.124066
		CHANNELS 6 Xposition Yposition Zposition Zrotation Xrotation Yrotation
		JOINT Neck
		{
			OFFSET 0.000000 0.000002 -2.490615
			CHANNELS 6 Xposition Yposition Zposition Zrotation Xrotation Yrotation
			JOINT Head
			{
				OFFSET 0.000000 0.204341 -1.583640
				CHANNELS 6 Xposition Yposition Zposition Zrotation Xrotation Yrotation
				End Site
				{
					OFFSET 0.000000 0.000000 -2.043401
				}
			}
		}
		JOINT LeftShoulder
		{
			OFFSET 0.411488 -0.054013 -2.011039
			CHANNELS 6 Xposition Yposition Zposition Zrotation Xrotation Yrotation
			JOINT LeftArm
			{
				OFFSET 1.468305 0.000000 0.000000
				CHANNELS 6 Xposition Yposition Zposition Zrotation Xrotation Yrotation
				JOINT LeftForeArm
				{
					OFFSET 2.879112 0.000000 0.000000
					CHANNELS 6 Xposition Yposition Zposition Zrotation Xrotation Yrotation
					JOINT LeftHand
					{
						OFFSET 2.675755 0.000000 0.000000
						CHANNELS 6 Xposition Yposition Zposition Zrotation Xrotation Yrotation
						End Site
						{
							OFFSET 1.532550 0.000000 0.000000
						}
					}
				}
			}
		}
		JOINT RightShoulder
		{
			OFFSET -0.405812 -0.054013 -2.011039
			CHANNELS 6 Xposition Yposition Zposition Zrotation Xrotation Yrotation
			JOINT RightArm
			{
				OFFSET -1.468305 0.000000 0.000000
				CHANNELS 6 Xposition Yposition Zposition Zrotation Xrotation Yrotation
				JOINT RightForeArm
				{
					OFFSET -2.879111 0.000000 0.000000
					CHANNELS 6 Xposition Yposition Zposition Zrotation Xrotation Yrotation
					JOINT RightHand
					{
						OFFSET -2.675757 0.000000 0.000000
						CHANNELS 6 Xposition Yposition Zposition Zrotation Xrotation Yrotation
						End Site
						{
							OFFSET -1.532550 0.000000 0.000000
						}
					}
				}
			}
		}
	}
	JOINT LeftUpLeg
	{
		OFFSET 1.021703 0.000000 0.000000
		CHANNELS 6 Xposition Yposition Zposition Zrotation Xrotation Yrotation
		JOINT LeftLeg
		{
			OFFSET 0.000000 -0.000002 4.296927
			CHANNELS 6 Xposition Yposition Zposition Zrotation Xrotation Yrotation
			JOINT LeftFoot
			{
				OFFSET 0.000000 -0.000002 4.504838
				CHANNELS 6 Xposition Yposition Zposition Zrotation Xrotation Yrotation
				JOINT LeftToeBase
				{
					OFFSET 0.000000 1.532553 0.664107
					CHANNELS 6 Xposition Yposition Zposition Zrotation Xrotation Yrotation
					End Site
					{
						OFFSET 0.000000 0.408681 0.000000
					}
				}
			}
		}
	}
	JOINT RightUpLeg
	{
		OFFSET -1.021703 0.000000 0.000000
		CHANNELS 6 Xposition Yposition Zposition Zrotation Xrotation Yrotation
		JOINT RightLeg
		{
			OFFSET 0.000000 -0.000002 4.296927
			CHANNELS 6 Xposition Yposition Zposition Zrotation Xrotation Yrotation
			JOINT RightFoot
			{
				OFFSET 0.000000 -0.000002 4.504838
				CHANNELS 6 Xposition Yposition Zposition Zrotation Xrotation Yrotation
				JOINT RightToeBase
				{
					OFFSET 0.000000 1.532553 0.664107
					CHANNELS 6 Xposition Yposition Zposition Zrotation Xrotation Yrotation
					End Site
					{
						OFFSET 0.000000 0.408681 0.000000
					}
				}
			}
		}
	}
}
MOTION
Frames: 8
Frame Time: 0.016667
1.278596 -0.176560 -8.400684 4.092179 10.452163 3.893377 -0.000000 0.000001 -3.124065 -4.089723 -5.586026 3.872970 -0.000000 0.000001 -2.490614 3.889883 6.574876 -1.315642 -0.000000 0.204341 -1.583645 4.005206 17.929361 7.220235 0.411487 -0.054013 -2.011035 0.111483 -7.751436 18.326115 1.468306 0.000000 -0.000000 19.761226 7.262731 -21.310738 2.879110 -0.000001 -0.000002 42.384852 3.319237 32.266459 2.675758 0.000000 0.000000 -3.443338 -10.451266 30.073258 -0.405810 -0.054013 -2.011039 -2.681220 -5.822458 -13.573313 -1.468306 0.000000 0.000002 -58.236843 -0.584723 54.625428 -2.879114 -0.000001 0.000001 -112.785985 6.439802 -33.646393 -2.675756 -0.000005 0.000001 2.687515 -44.608686 -6.069220 1.021703 0.000000 0.000002 -22.322870 -29.068670 10.080113 0.000000 -0.000001 4.296924 -12.001821 38.539185 -7.804513 -0.000001 -0.000002 4.504838 -18.185315 -7.730234 -3.308834 -0.000000 1.532553 0.664107 0.000008 -0.000003 -0.000001 -1.021702 0.000000 0.000002 -8.062576 -21.376984 -38.476505 0.000002 -0.000001 4.296926 26.749763 29.958265 16.868394 0.000001 -0.000002 4.504840 27.986927 1.209733 8.127548 -0.000000 1.532553 0.664107 0.000003 -0.000000 -0.000001 
1.276896 -0.179534 -8.401254 4.038210 10.391568 3.849714 -0.000000 0.000002 -3.124064 -4.274523 -5.449740 3.816593 0.000000 0.000002 -2.490613 4.296150 6.685690 -1.342609 0.000000 0.204341 -1.583640 4.384212 18.528823 7.677019 0.411487 -0.054013 -2.011036 0.216766 -7.732401 18.210063 1.468307 0.000000 -0.000001 20.183286 7.275539 -21.504738 2.879110 0.000001 0.000001 42.968621 3.936238 32.745290 2.675754 0.000000 -0.000004 -3.175180 -10.189759 30.751154 -0.405810 -0.054013 -2.011038 -2.798174 -5.795285 -13.455049 -1.468305 0.000000 0.000006 -59.762796 -0.104089 54.866394 -2.879112 -0.000001 0.000001 -113.022507 5.759394 -33.960780 -2.675758 0.000000 0.000002 1.190187 -45.721723 -8.014000 1.021703 0.000000 0.000002 -22.245445 -29.065542 10.150129 0.000000 -0.000002 4.296924 -11.963225 38.534763 -7.807874 -0.000001 -0.000002 4.504837 -18.203974 -7.713999 -3.337460 0.000000 1.532553 0.664106 0.000009 -0.000004 -0.000000 -1.021703 0.000000 0.000002 -8.724875 -20.627783 -38.684142 0.000001 -0.000002 4.296926 27.488161 29.724775 17.130584 0.000001 -0.000002 4.504838 28.173533 1.192396 8.015973 -0.000000 1.532552 0.664107 0.000002 -0.000000 0.000000 
1.274897 -0.183574 -8.401866 3.972319 10.346850 3.781218 -0.000000 0.000002 -3.124067 -4.415000 -5.279821 3.767563 0.000000 0.000001 -2.490616 4.694572 6.747607 -1.370456 0.000000 0.204341 -1.583647 4.754291 19.095626 8.118983 0.411487 -0.054013 -2.011038 0.285071 -7.770088 18.132491 1.468304 0.000000 -0.000004 20.594422 7.348996 -21.757837 2.879110 -0.000000 0.000001 43.505856 4.648395 33.318008 2.675753 -0.000001 -0.000002 -3.055960 -9.896446 31.162236 -0.405811 -0.054013 -2.011040 -2.953431 -5.821224 -13.378963 -1.468306 -0.000000 0.000001 -60.806135 0.422442 55.294920 -2.879114 -0.000001 0.000001 -114.001451 4.450263 -33.772198 -2.675758 -0.000001 0.000001 2.896787 -47.255774 -5.275470 1.021702 0.000000 0.000001 -22.160699 -29.105116 10.233739 0.000001 -0.000001 4.296924 -11.849183 38.538209 -7.849353 -0.000001 -0.000002 4.504837 -18.266270 -7.706411 -3.319807 0.000002 1.532553 0.664108 0.000004 0.000004 0.000005 -1.021703 0.000000 0.000000 -8.641023 -20.598247 -38.566909 0.000001 -0.000001 4.296926 27.554890 29.709755 17.086721 0.000002 -0.000002 4.504838 28.144266 1.219537 8.026019 -0.000000 1.532554 0.664107 0.000002 0.000000 0.000001 
1.273208 -0.187067 -8.401916 3.896442 10.284162 3.725425 0.000000 0.000002 -3.124065 -4.575408 -5.123238 3.710177 -0.000000 0.000001 -2.490617 5.089237 6.869120 -1.428523 -0.000000 0.204341 -1.583640 5.118113 19.595152 8.634023 0.411487 -0.054013 -2.011042 0.405432 -7.751119 18.044195 1.468305 0.000000 0.000001 20.915132 7.363934 -21.999676 2.879111 -0.000000 -0.000000 44.230451 5.285331 33.849475 2.675753 0.000000 0.000003 -2.813011 -9.700685 31.674869 -0.405811 -0.054013 -2.011041 -3.081514 -5.822976 -13.281642 -1.468306 0.000001 0.000002 -61.939994 0.990430 55.581996 -2.879112 0.000000 -0.000001 -114.736222 3.249381 -33.682111 -2.675758 -0.000000 0.000002 3.284025 -48.578720 -4.406164 1.021703 -0.000000 0.000002 -22.134673 -29.141060 10.279727 -0.000001 -0.000001 4.296926 -11.829163 38.562999 -7.794411 -0.000001 -0.000002 4.504838 -18.215539 -7.696269 -3.319432 -0.000000 1.532553 0.664107 -0.000000 0.000004 0.000001 -1.021702 -0.000000 0.000000 -8.273027 -20.811388 -38.380124 -0.000001 -0.000001 4.296925 27.335810 29.804459 16.979580 0.000001 -0.000002 4.504838 28.028953 1.252495 8.062598 -0.000000 1.532553 0.664107 -0.000005 -0.000000 0.000000 
1.272112 -0.190697 -8.401905 3.817639 10.243884 3.672484 -0.000000 0.000002 -3.124064 -4.719860 -4.981663 3.639083 0.000000 0.000000 -2.490612 5.495369 6.955378 -1.426708 -0.000000 0.204340 -1.583642 5.490344 20.130791 9.014482 0.411487 -0.054014 -2.011035 0.512703 -7.768083 17.952708 1.468306 0.000000 -0.000003 21.207247 7.342663 -22.250610 2.879111 -0.000001 0.000003 44.899365 6.043054 34.339572 2.675752 0.000001 0.000001 -2.579511 -9.354988 32.107268 -0.405811 -0.054013 -2.011035 -3.254809 -5.867474 -13.223622 -1.468307 0.000002 0.000002 -63.271109 1.639039 55.854811 -2.879112 0.000000 0.000000 -115.570954 1.834779 -33.522715 -2.675760 0.000001 0.000000 2.846345 -50.015170 -5.403845 1.021703 0.000000 0.000002 -22.055909 -29.178305 10.342650 0.000000 -0.000001 4.296926 -11.749033 38.570338 -7.820818 -0.000001 -0.000004 4.504839 -18.243273 -7.701243 -3.302545 -0.000000 1.532553 0.664107 -0.000002 -0.000001 0.000001 -1.021703 0.000000 0.000003 -8.512253 -20.463406 -38.428745 0.000001 -0.000001 4.296926 27.698502 29.695801 17.098199 0.000002 -0.000002 4.504839 28.097090 1.256425 8.025430 -0.000000 1.532555 0.664107 0.000008 -0.000001 -0.000002 
1.270864 -0.194567 -8.401611 3.735906 10.223788 3.599333 -0.000000 0.000002 -3.124063 -4.889705 -4.808723 3.584242 0.000000 0.000002 -2.490616 5.944466 7.042750 -1.355290 -0.000000 0.204342 -1.583643 5.912514 20.549126 9.318603 0.411489 -0.054013 -2.011041 0.654710 -7.758826 17.899267 1.468304 0.000000 -0.000001 21.507992 7.348052 -22.497718 2.879110 -0.000000 -0.000001 45.550549 6.795910 34.935680 2.675754 0.000002 0.000000 -2.535227 -9.110373 32.230491 -0.405810 -0.054013 -2.011040 -3.352983 -5.885720 -13.155084 -1.468305 0.000000 0.000002 -64.642830 2.555826 56.183213 -2.879112 0.000001 -0.000002 -115.705126 1.455815 -33.952174 -2.675758 -0.000000 0.000001 3.882718 -50.962579 -2.557354 1.021702 0.000000 0.000002 -21.960725 -29.256934 10.428835 0.000000 -0.000001 4.296924 -11.711630 38.606220 -7.827461 -0.000001 -0.000004 4.504837 -18.239803 -7.707196 -3.287502 0.000000 1.532554 0.664107 0.000007 0.000001 -0.000000 -1.021702 -0.000000 0.000000 -8.171068 -20.656208 -38.262870 0.000001 -0.000001 4.296926 27.439486 29.731967 17.099350 0.000002 -0.000002 4.504838 28.066555 1.294641 8.054501 0.000000 1.532553 0.664107 0.000004 -0.000000 0.000002 
1.270131 -0.198016 -8.401164 3.652448 10.184461 3.523468 -0.000000 0.000002 -3.124066 -5.015229 -4.633704 3.528906 0.000000 0.000002 -2.490615 6.337226 7.098088 -1.331743 -0.000000 0.204339 -1.583638 6.270275 21.025277 9.668076 0.411487 -0.054013 -2.011039 0.802620 -7.774148 17.806508 1.468303 0.000000 0.000002 21.726343 7.398150 -22.758253 2.879112 -0.000001 -0.000001 46.255274 7.597653 35.565782 2.675751 0.000001 0.000001 -2.457801 -8.853373 32.329191 -0.405811 -0.054013 -2.011041 -3.556745 -5.874439 -13.104293 -1.468306 0.000000 -0.000001 -65.945162 3.441434 56.426129 -2.879114 -0.000001 -0.000000 -116.257620 0.466642 -34.086920 -2.675758 0.000000 0.000001 4.330518 -52.244233 -1.587869 1.021702 0.000000 -0.000002 -21.868710 -29.314216 10.520541 -0.000000 -0.000001 4.296925 -11.680112 38.636246 -7.829283 -0.000001 -0.000002 4.504838 -18.215681 -7.724001 -3.260225 0.000000 1.532555 0.664107 0.000008 -0.000001 0.000001 -1.021703 0.000000 -0.000000 -8.105911 -20.590633 -38.181492 0.000001 -0.000002 4.296926 27.525579 29.719000 17.113410 0.000001 -0.000002 4.504840 28.087789 1.333549 8.018840 0.000000 1.532553 0.664106 -0.000000 0.000002 0.000001 
1.269354 -0.201902 -8.400906 3.581338 10.153667 3.450812 0.000000 0.000002 -3.124065 -5.166995 -4.447224 3.458852 -0.000000 0.000002 -2.490617 6.729677 7.129577 -1.245181 -0.000000 0.204342 -1.583641 6.626598 21.473855 9.967041 0.411487 -0.054013 -2.011041 0.916699 -7.785804 17.725055 1.468305 0.000000 0.000003 21.978750 7.403151 -23.033589 2.879110 0.000001 0.000001 46.868499 8.465149 36.231008 2.675752 0.000000 0.000001 -2.344803 -8.514541 32.490510 -0.405812 -0.054013 -2.011038 -3.675435 -5.803364 -13.050809 -1.468305 0.000001 -0.000001 -67.426671 4.390658 56.605900 -2.879114 -0.000001 -0.000000 -116.783462 -0.523396 -34.350486 -2.675759 -0.000000 -0.000000 4.860686 -53.661596 -0.597243 1.021703 0.000000 -0.000001 -21.812419 -29.382142 10.592057 -0.000001 -0.000001 4.296928 -11.684394 38.670308 -7.794872 -0.000001 -0.000002 4.504838 -18.157986 -7.731665 -3.227997 -0.000000 1.532553 0.664106 0.000002 -0.000000 0.000002 -1.021702 0.000000 0.000000 -8.076628 -20.523136 -38.113395 0.000000 -0.000001 4.296924 27.596799 29.706170 17.133002 0.000002 -0.000002 4.504840 28.090884 1.348752 8.088944 -0.000000 1.532553 0.664107 0.000007 -0.000001 0.000000 
